<svg width="24" height="21" viewBox="0 0 24 21" fill="none" xmlns="http://www.w3.org/2000/svg">
<g filter="url(#filter0_d_126_3633)">
<path d="M15.5 11H14.71L14.43 10.73C15.41 9.59 16 8.11 16 6.5C16 2.91 13.09 0 9.5 0C5.91 0 3 2.91 3 6.5C3 10.09 5.91 13 9.5 13C11.11 13 12.59 12.41 13.73 11.43L14 11.71V12.5L19 17.49L20.49 16L15.5 11ZM9.5 11C7.01 11 5 8.99 5 6.5C5 4.01 7.01 2 9.5 2C11.99 2 14 4.01 14 6.5C14 8.99 11.99 11 9.5 11Z" fill="white"/>
</g>
<defs>
<filter id="filter0_d_126_3633" x="-1" y="0" width="25.4902" height="25.4902" filterUnits="userSpaceOnUse" color-interpolation-filters="sRGB">
<feFlood flood-opacity="0" result="BackgroundImageFix"/>
<feColorMatrix in="SourceAlpha" type="matrix" values="0 0 0 0 0 0 0 0 0 0 0 0 0 0 0 0 0 0 127 0" result="hardAlpha"/>
<feOffset dy="4"/>
<feGaussianBlur stdDeviation="2"/>
<feComposite in2="hardAlpha" operator="out"/>
<feColorMatrix type="matrix" values="0 0 0 0 0 0 0 0 0 0 0 0 0 0 0 0 0 0 0.25 0"/>
<feBlend mode="normal" in2="BackgroundImageFix" result="effect1_dropShadow_126_3633"/>
<feBlend mode="normal" in="SourceGraphic" in2="effect1_dropShadow_126_3633" result="shape"/>
</filter>
</defs>
</svg>
